HIERARCHY
ROOT Pelvis
{
	OFFSET 0.000000 0.000000 0.000000
	CHANNELS 6 Xposition Yposition Zposition Xrotation Yrotation Zrotation
	JOINT LeftUpLeg_virtual
	{
		OFFSET 0.000000 0.000000 0.000000
		CHANNELS 3 Xrotation Yrotation Zrotation
		JOINT LeftUpLeg
		{
			OFFSET 18.735201 -5.666702 -4.541200
			CHANNELS 3 Xrotation Yrotation Zrotation
			JOINT LeftLeg
			{
				OFFSET -0.021200 -31.938179 0.493100
				CHANNELS 3 Xrotation Yrotation Zrotation
				JOINT LeftFoot
				{
					OFFSET 0.021200 -31.938179 -4.336299
					CHANNELS 3 Xrotation Yrotation Zrotation
					JOINT LeftToeBase
					{
						OFFSET 0.943001 -26.722000 15.023500
						CHANNELS 3 Xrotation Yrotation Zrotation
						End Site
						{
							OFFSET 0 0 0
						}
					}
				}
			}
		}
	}
	JOINT RightUpLeg_virtual
	{
		OFFSET 0.000000 0.000000 0.000000
		CHANNELS 3 Xrotation Yrotation Zrotation
		JOINT RightUpLeg
		{
			OFFSET -18.735201 -5.666702 -4.541200
			CHANNELS 3 Xrotation Yrotation Zrotation
			JOINT RightLeg
			{
				OFFSET 0.018946 -31.938133 0.493100
				CHANNELS 3 Xrotation Yrotation Zrotation
				JOINT RightFoot
				{
					OFFSET -0.018946 -31.938126 -4.336299
					CHANNELS 3 Xrotation Yrotation Zrotation
					JOINT RightToeBase
					{
						OFFSET -0.943001 -26.722004 15.023500
						CHANNELS 3 Xrotation Yrotation Zrotation
						End Site
						{
							OFFSET 0 0 0
						}
					}
				}
			}
		}
	}
	JOINT Hips_virtual
	{
		OFFSET 0.000000 0.000000 0.000000
		CHANNELS 3 Xrotation Yrotation Zrotation
		JOINT Hips
		{
			OFFSET -0.000000 -0.000000 -0.000000
			CHANNELS 3 Xrotation Yrotation Zrotation
			JOINT Spine
			{
				OFFSET 0.000000 10.199997 -0.299500
				CHANNELS 3 Xrotation Yrotation Zrotation
				JOINT Spine1
				{
					OFFSET 0.000000 11.900002 -1.516600
					CHANNELS 3 Xrotation Yrotation Zrotation
					JOINT Spine2
					{
						OFFSET 0.000000 13.600006 -2.842500
						CHANNELS 3 Xrotation Yrotation Zrotation
						JOINT Neck_virtual
						{
							OFFSET 0.000000 0.000000 0.000000
							CHANNELS 3 Xrotation Yrotation Zrotation
							JOINT Neck
							{
								OFFSET 0.000000 9.624100 -2.890100
								CHANNELS 3 Xrotation Yrotation Zrotation
								JOINT Head
								{
									OFFSET 0.000000 14.068802 -1.351900
									CHANNELS 3 Xrotation Yrotation Zrotation
									End Site
									{
										OFFSET 0 0 0
									}
								}
							}
						}
						JOINT LeftShoulder_virtual
						{
							OFFSET 0.000000 0.000000 0.000000
							CHANNELS 3 Xrotation Yrotation Zrotation
							JOINT LeftShoulder
							{
								OFFSET 15.263000 10.923401 -0.547700
								CHANNELS 3 Xrotation Yrotation Zrotation
								JOINT LeftArm
								{
									OFFSET 25.438599 -2.830597 -13.032500
									CHANNELS 3 Xrotation Yrotation Zrotation
									JOINT LeftForeArm
									{
										OFFSET 29.960503 0.000000 0.000000
										CHANNELS 3 Xrotation Yrotation Zrotation
										JOINT LeftHand
										{
											OFFSET 27.849251 0.000000 0.000000
											CHANNELS 3 Xrotation Yrotation Zrotation
											End Site
											{
												OFFSET 0 0 0
											}
										}
									}
								}
							}
						}
						JOINT RightShoulder_virtual
						{
							OFFSET 0.000000 0.000000 0.000000
							CHANNELS 3 Xrotation Yrotation Zrotation
							JOINT RightShoulder
							{
								OFFSET -15.263000 10.923401 -0.547700
								CHANNELS 3 Xrotation Yrotation Zrotation
								JOINT RightArm
								{
									OFFSET -25.438599 -2.830597 -13.032500
									CHANNELS 3 Xrotation Yrotation Zrotation
									JOINT RightForeArm
									{
										OFFSET -29.960503 0.000000 0.000000
										CHANNELS 3 Xrotation Yrotation Zrotation
										JOINT RightHand
										{
											OFFSET -27.849251 0.000000 0.000000
											CHANNELS 3 Xrotation Yrotation Zrotation
											End Site
											{
												OFFSET 0 0 0
											}
										}
									}
								}
							}
						}
					}
				}
			}
		}
	}
}
MOTION
Frames: 4
Frame Time: 0.03333333
-2.918814 82.757515 2.104088 0.000000 0.000000 0.000000 -0.472982 -43.593180 4.164041 -46.316616 -3.134705 19.282708 42.798607 -6.070374 -5.493535 -8.771800 -3.137628 -17.557595 0.000000 0.000000 0.000000 2.703457 -49.514227 -4.001212 -30.425194 -16.639794 -25.269477 43.133048 6.460994 -0.996270 -12.377367 2.670664 14.631025 0.000000 0.000000 0.000000 0.512913 -28.049186 1.065742 1.792391 -34.109152 2.909365 14.011302 -1.073744 -4.379747 7.949118 0.620893 -3.796487 0.000000 0.000000 0.000000 2.444006 3.817081 -1.698088 -1.194795 3.168868 -0.209235 0.000000 0.000000 0.000000 3.353634 -0.285851 -2.886027 -1.347430 -8.567298 -10.087158 -18.418862 -2.751142 -40.057000 -3.542959 -37.545997 -1.729992 0.000000 0.000000 0.000000 4.208805 1.176076 -2.812968 0.852415 4.477166 -5.731926 -39.405028 -9.120106 40.361138 -44.123862 70.924684 38.289187 0.000000 0.000000 0.000000 
-2.230760 82.800850 1.661581 0.000000 0.000000 0.000000 0.266662 -43.621013 4.623382 -45.300400 -3.182675 19.363339 42.587295 -6.510089 -6.007419 -8.562862 -3.345839 -18.818445 0.000000 0.000000 0.000000 3.110519 -49.858930 -3.835893 -29.941268 -16.850994 -25.215008 43.628984 7.005497 -1.321442 -12.075586 3.404416 14.470953 0.000000 0.000000 0.000000 -1.377689 -28.061313 -0.302655 5.756280 -33.154551 4.954420 13.792352 -1.536759 -5.391643 8.160063 0.600416 -4.189308 0.000000 0.000000 0.000000 3.050611 3.442631 -2.631511 -0.991959 3.365907 -0.306086 0.000000 0.000000 0.000000 3.105772 -0.559606 -3.297437 -1.177888 -7.894032 -9.487555 -18.059637 -1.129605 -40.363228 -2.438482 -36.353019 -1.179997 0.000000 0.000000 0.000000 3.641647 1.255058 -3.042502 0.723922 3.045423 -5.363537 -38.867888 -12.603705 38.669481 -57.220968 72.184731 51.883917 0.000000 0.000000 0.000000 
-0.749825 82.734207 3.316851 0.000000 0.000000 0.000000 -0.123895 -44.401267 4.878615 -45.675155 -3.677519 19.545835 42.925584 -6.415029 -6.505878 -8.133399 -2.996792 -19.642079 0.000000 0.000000 0.000000 3.824321 -49.169128 -3.351931 -29.229972 -16.805465 -24.882668 44.857237 7.611674 -2.054167 -11.276400 4.494215 13.846891 0.000000 0.000000 0.000000 0.751086 -26.626126 2.388056 0.056778 -30.932219 6.237798 14.093879 -2.100532 -5.418684 7.671279 0.426739 -3.978946 0.000000 0.000000 0.000000 3.455944 3.326434 -2.728589 -1.344210 3.628618 -0.354032 0.000000 0.000000 0.000000 3.217746 -0.284825 -3.446634 -2.004504 -7.868006 -10.267544 -15.778053 1.664593 -42.262298 -1.679707 -31.636600 -1.534720 0.000000 0.000000 0.000000 3.727338 1.480845 -3.226131 0.916959 2.291994 -5.818608 -35.872601 -11.356464 40.549597 -72.731290 74.008337 67.252324 0.000000 0.000000 0.000000 
-1.466972 83.058151 2.232695 0.000000 0.000000 0.000000 -0.778048 -43.809434 3.920764 -45.987541 -3.302576 18.916713 43.014260 -6.115860 -6.583820 -7.966284 -2.660427 -19.649146 0.000000 0.000000 0.000000 5.132753 -48.824211 -2.807549 -27.890376 -16.981974 -24.738831 44.636147 8.016571 -1.961751 -11.446478 4.813785 14.194656 0.000000 0.000000 0.000000 -1.152508 -25.671826 1.306527 1.949527 -31.405087 5.344075 13.251206 -2.044301 -5.113438 8.479085 0.685859 -4.578943 0.000000 0.000000 0.000000 3.327276 3.150782 -2.915777 -1.442968 3.708694 -0.319235 0.000000 0.000000 0.000000 3.380647 -0.478347 -3.853177 -2.909426 -7.933632 -9.674254 -18.461115 1.128905 -40.661824 -2.752388 -32.951684 -1.215108 0.000000 0.000000 0.000000 3.569706 1.741179 -3.240196 -0.435941 1.302056 -4.351511 -37.603190 -14.021564 39.228164 -87.089167 73.560427 81.684992 0.000000 0.000000 0.000000 
